<svg width="30" height="30" viewBox="0 0 30 30" fill="none" xmlns="http://www.w3.org/2000/svg">
<circle cx="15" cy="15" r="14.5" fill="white" stroke="#628E62"/>
<path d="M19.9722 9.25125C19.7426 9.1235 19.4901 9.04226 19.2291 9.01217C18.9681 8.98209 18.7037 9.00375 18.4511 9.07591C18.1985 9.14807 17.9626 9.26933 17.7568 9.43274C17.5511 9.59615 17.3796 9.79851 17.2522 10.0282L13.5392 16.7102L11.4142 14.5852C11.2297 14.3942 11.009 14.2419 10.765 14.137C10.521 14.0322 10.2585 13.9771 9.99296 13.9747C9.72741 13.9724 9.46405 14.023 9.21825 14.1236C8.97246 14.2242 8.74916 14.3727 8.56137 14.5605C8.37359 14.7482 8.22508 14.9715 8.12452 15.2173C8.02396 15.4631 7.97335 15.7265 7.97566 15.992C7.97797 16.2576 8.03314 16.52 8.13796 16.7641C8.24278 17.0081 8.39514 17.2288 8.58616 17.4132L12.5862 21.4132C12.9642 21.7922 13.4742 22.0002 14.0002 22.0002L14.2772 21.9802C14.5837 21.9374 14.8761 21.8239 15.1314 21.6488C15.3866 21.4737 15.5978 21.2418 15.7482 20.9712L20.7482 11.9712C20.8758 11.7417 20.957 11.4893 20.9871 11.2283C21.0172 10.9674 20.9956 10.7031 20.9235 10.4505C20.8515 10.1979 20.7304 9.96203 20.5671 9.75626C20.4039 9.55049 20.2017 9.37888 19.9722 9.25125Z" fill="#628E62"/>
</svg>